<svg width="30" height="13" viewBox="0 0 30 13" fill="none" xmlns="http://www.w3.org/2000/svg">
<path d="M0.333328 12.4359V11.2846C0.333328 10.4657 0.770884 9.78616 1.64599 9.24594C2.52133 8.70594 3.64788 8.43594 5.02566 8.43594C5.229 8.43594 5.44688 8.44572 5.67933 8.46527C5.91199 8.48505 6.15911 8.51716 6.42066 8.56161C6.21199 8.92561 6.05977 9.29905 5.96399 9.68194C5.86844 10.0648 5.82066 10.4486 5.82066 10.8333V12.4359H0.333328ZM8.33333 12.4359V10.9359C8.33333 10.3986 8.48933 9.90738 8.80133 9.46227C9.11333 9.01738 9.57355 8.6325 10.182 8.30761C10.7907 7.98294 11.4997 7.73938 12.309 7.57694C13.1183 7.41449 14.0119 7.33327 14.9897 7.33327C15.9863 7.33327 16.8893 7.41449 17.6987 7.57694C18.508 7.73938 19.217 7.98294 19.8257 8.30761C20.4341 8.6325 20.8931 9.01738 21.2027 9.46227C21.512 9.90738 21.6667 10.3986 21.6667 10.9359V12.4359H8.33333ZM24.1793 12.4359V10.8409C24.1793 10.4156 24.1328 10.0148 24.0397 9.63861C23.9466 9.26238 23.8069 8.90338 23.6207 8.56161C23.8991 8.51716 24.1491 8.48505 24.3707 8.46527C24.592 8.44572 24.8018 8.43594 25 8.43594C26.3778 8.43594 27.5 8.70472 28.3667 9.24227C29.2333 9.77983 29.6667 10.4606 29.6667 11.2846V12.4359H24.1793ZM9.705 11.1026H20.3027V10.8206C20.2513 10.1879 19.7329 9.67083 18.7473 9.26927C17.762 8.86749 16.5129 8.66661 15 8.66661C13.4871 8.66661 12.238 8.86749 11.2527 9.26927C10.2671 9.67083 9.75122 10.1879 9.705 10.8206V11.1026ZM5.01866 7.17927C4.49511 7.17927 4.04911 6.99349 3.68066 6.62194C3.31244 6.25038 3.12833 5.80372 3.12833 5.28194C3.12833 4.76572 3.31411 4.32472 3.68566 3.95894C4.05722 3.59316 4.50388 3.41027 5.02566 3.41027C5.54188 3.41027 5.98722 3.59316 6.36166 3.95894C6.73588 4.32472 6.923 4.76827 6.923 5.28961C6.923 5.79561 6.74055 6.23705 6.37566 6.61394C6.01055 6.99083 5.55822 7.17927 5.01866 7.17927ZM25 7.17927C24.4889 7.17927 24.0449 6.99083 23.668 6.61394C23.2911 6.23705 23.1027 5.79561 23.1027 5.28961C23.1027 4.76827 23.2911 4.32472 23.668 3.95894C24.0449 3.59316 24.4906 3.41027 25.005 3.41027C25.535 3.41027 25.9829 3.59316 26.3487 3.95894C26.7144 4.32472 26.8973 4.76572 26.8973 5.28194C26.8973 5.80372 26.7156 6.25038 26.352 6.62194C25.9882 6.99349 25.5376 7.17927 25 7.17927ZM15.009 6.33327C14.1997 6.33327 13.5087 6.04905 12.936 5.48061C12.3633 4.91238 12.077 4.22227 12.077 3.41027C12.077 2.58205 12.3611 1.88783 12.9293 1.32761C13.4978 0.767162 14.188 0.486938 15 0.486938C15.8282 0.486938 16.5224 0.766272 17.0827 1.32494C17.6429 1.88338 17.923 2.57549 17.923 3.40127C17.923 4.2106 17.6438 4.90161 17.0853 5.47427C16.5269 6.04694 15.8348 6.33327 15.009 6.33327ZM15.0127 4.99994C15.4504 4.99994 15.8227 4.84227 16.1293 4.52694C16.4362 4.21138 16.5897 3.83483 16.5897 3.39727C16.5897 2.95972 16.4373 2.58749 16.1327 2.28061C15.828 1.97372 15.4504 1.82027 15 1.82027C14.5709 1.82027 14.1987 1.97272 13.8833 2.27761C13.568 2.58227 13.4103 2.95983 13.4103 3.41027C13.4103 3.83916 13.568 4.21138 13.8833 4.52694C14.1987 4.84227 14.5751 4.99994 15.0127 4.99994Z" fill="#535353"/>
</svg>
