<svg width="27" height="27" viewBox="0 0 27 27" fill="none" xmlns="http://www.w3.org/2000/svg">
<mask id="mask0_1_162" style="mask-type:alpha" maskUnits="userSpaceOnUse" x="0" y="0" width="27" height="27">
<rect width="26.2246" height="26.2246" fill="#D9D9D9"/>
</mask>
<g mask="url(#mask0_1_162)">
<path d="M11.5825 18.1387L19.2859 10.4352L17.7562 8.90542L11.5825 15.0791L8.46828 11.965L6.93851 13.4947L11.5825 18.1387ZM13.1122 24.0392C11.6007 24.0392 10.1802 23.7524 8.85072 23.1787C7.52128 22.605 6.36485 21.8265 5.38143 20.8431C4.398 19.8597 3.61946 18.7032 3.0458 17.3738C2.47213 16.0443 2.1853 14.6238 2.1853 13.1123C2.1853 11.6007 2.47213 10.1802 3.0458 8.85079C3.61946 7.52134 4.398 6.36491 5.38143 5.38149C6.36485 4.39807 7.52128 3.61952 8.85072 3.04586C10.1802 2.4722 11.6007 2.18536 13.1122 2.18536C14.6238 2.18536 16.0443 2.4722 17.3737 3.04586C18.7032 3.61952 19.8596 4.39807 20.843 5.38149C21.8264 6.36491 22.605 7.52134 23.1786 8.85079C23.7523 10.1802 24.0391 11.6007 24.0391 13.1123C24.0391 14.6238 23.7523 16.0443 23.1786 17.3738C22.605 18.7032 21.8264 19.8597 20.843 20.8431C19.8596 21.8265 18.7032 22.605 17.3737 23.1787C16.0443 23.7524 14.6238 24.0392 13.1122 24.0392Z" fill="#1EB700"/>
</g>
</svg>
